HIERARCHY
ROOT Hips
{
	OFFSET 0.053599 88.859886 3.107447
	CHANNELS 6 Xposition Yposition Zposition Zrotation Yrotation Xrotation 
	JOINT Spine
	{
		OFFSET -0.000000 8.814246 -2.080107
		CHANNELS 3 Zrotation Yrotation Xrotation
		JOINT Spine1
		{
			OFFSET 0.000000 8.844141 0.000000
			CHANNELS 3 Zrotation Yrotation Xrotation
			JOINT Spine2
			{
				OFFSET -0.000000 11.682268 0.000000
				CHANNELS 3 Zrotation Yrotation Xrotation
				JOINT Spine3
				{
					OFFSET 0.000000 11.746700 0.000000
					CHANNELS 3 Zrotation Yrotation Xrotation
					JOINT Neck
					{
						OFFSET -0.000000 17.658264 -0.000000
						CHANNELS 3 Zrotation Yrotation Xrotation
						JOINT Neck1
						{
							OFFSET -0.000000 5.101515 -0.000000
							CHANNELS 3 Zrotation Yrotation Xrotation
							JOINT Head
							{
								OFFSET 0.000000 5.101515 0.000000
								CHANNELS 3 Zrotation Yrotation Xrotation
								JOINT HeadEnd
								{
									OFFSET 0.000000 11.655085 0.000000
									CHANNELS 3 Zrotation Yrotation Xrotation
									End Site
									{
										OFFSET 0.000000 0.000000 0.000000
									}
								}
							}
						}
					}
					JOINT RightShoulder
					{
						OFFSET -2.625389 11.175210 0.000000
						CHANNELS 3 Zrotation Yrotation Xrotation
						JOINT RightArm
						{
							OFFSET -0.000000 10.434715 -0.000000
							CHANNELS 3 Zrotation Yrotation Xrotation
							JOINT RightForeArm
							{
								OFFSET -0.000000 29.628420 0.000000
								CHANNELS 3 Zrotation Yrotation Xrotation
								JOINT RightHand
								{
									OFFSET -0.000000 22.857611 0.000000
									CHANNELS 3 Zrotation Yrotation Xrotation
									JOINT RightHandThumb1
									{
										OFFSET -2.867323 3.959563 2.944291
										CHANNELS 3 Zrotation Yrotation Xrotation
										JOINT RightHandThumb2
										{
											OFFSET 0.000000 3.350399 0.000000
											CHANNELS 3 Zrotation Yrotation Xrotation
											JOINT RightHandThumb3
											{
												OFFSET 0.000000 3.756509 -0.000000
												CHANNELS 3 Zrotation Yrotation Xrotation
												JOINT RightHandThumb4
												{
													OFFSET 0.000000 3.147345 0.000000
													CHANNELS 3 Zrotation Yrotation Xrotation
													End Site
													{
														OFFSET 0.000000 0.000000 0.000000
													}
												}
											}
										}
									}
									JOINT RightHandIndex1
									{
										OFFSET -0.086752 10.030893 2.345280
										CHANNELS 3 Zrotation Yrotation Xrotation
										JOINT RightHandIndex2
										{
											OFFSET -0.000000 4.061090 0.000000
											CHANNELS 3 Zrotation Yrotation Xrotation
											JOINT RightHandIndex3
											{
												OFFSET -0.000000 3.248873 0.000000
												CHANNELS 3 Zrotation Yrotation Xrotation
												JOINT RightHandIndex4
												{
													OFFSET 0.000000 2.639709 -0.000000
													CHANNELS 3 Zrotation Yrotation Xrotation
													End Site
													{
														OFFSET 0.000000 0.000000 0.000000
													}
												}
											}
										}
									}
									JOINT RightHandMiddle1
									{
										OFFSET 0.104102 9.502952 0.006768
										CHANNELS 3 Zrotation Yrotation Xrotation
										JOINT RightHandMiddle2
										{
											OFFSET 0.000000 4.568727 0.000000
											CHANNELS 3 Zrotation Yrotation Xrotation
											JOINT RightHandMiddle3
											{
												OFFSET 0.000000 3.654981 -0.000000
												CHANNELS 3 Zrotation Yrotation Xrotation
												JOINT RightHandMiddle4
												{
													OFFSET -0.000000 2.741236 -0.000000
													CHANNELS 3 Zrotation Yrotation Xrotation
													End Site
													{
														OFFSET 0.000000 0.000000 0.000000
													}
												}
											}
										}
									}
									JOINT RightHandRing1
									{
										OFFSET 0.086752 8.921708 -2.267442
										CHANNELS 3 Zrotation Yrotation Xrotation
										JOINT RightHandRing2
										{
											OFFSET -0.000000 4.061090 0.000000
											CHANNELS 3 Zrotation Yrotation Xrotation
											JOINT RightHandRing3
											{
												OFFSET 0.000000 3.654981 -0.000000
												CHANNELS 3 Zrotation Yrotation Xrotation
												JOINT RightHandRing4
												{
													OFFSET 0.000000 2.741236 -0.000000
													CHANNELS 3 Zrotation Yrotation Xrotation
													End Site
													{
														OFFSET 0.000000 0.000000 0.000000
													}
												}
											}
										}
									}
									JOINT RightHandPinky1
									{
										OFFSET -0.173504 7.976997 -4.467199
										CHANNELS 3 Zrotation Yrotation Xrotation
										JOINT RightHandPinky2
										{
											OFFSET 0.000000 3.350399 -0.000000
											CHANNELS 3 Zrotation Yrotation Xrotation
											JOINT RightHandPinky3
											{
												OFFSET -0.000000 2.842763 0.000000
												CHANNELS 3 Zrotation Yrotation Xrotation
												JOINT RightHandPinky4
												{
													OFFSET -0.000000 2.639709 0.000000
													CHANNELS 3 Zrotation Yrotation Xrotation
													End Site
													{
														OFFSET 0.000000 0.000000 0.000000
													}
												}
											}
										}
									}
									JOINT RightForeArmEnd
									{
										OFFSET 0.000000 0.000000 0.000000
										CHANNELS 3 Zrotation Yrotation Xrotation
										End Site
										{
											OFFSET 0.000000 0.000000 0.000000
										}
									}
								}
								JOINT RightArmEnd
								{
									OFFSET 0.000000 0.000000 0.000000
									CHANNELS 3 Zrotation Yrotation Xrotation
									End Site
									{
										OFFSET 0.000000 0.000000 0.000000
									}
								}
							}
						}
					}
					JOINT LeftShoulder
					{
						OFFSET 2.625389 11.175210 0.000000
						CHANNELS 3 Zrotation Yrotation Xrotation
						JOINT LeftArm
						{
							OFFSET 0.000000 10.813635 -0.000000
							CHANNELS 3 Zrotation Yrotation Xrotation
							JOINT LeftForeArm
							{
								OFFSET 0.000000 28.724781 0.000000
								CHANNELS 3 Zrotation Yrotation Xrotation
								JOINT LeftHand
								{
									OFFSET 0.644384 25.716167 -0.328871
									CHANNELS 3 Zrotation Yrotation Xrotation
									JOINT LeftHandThumb1
									{
										OFFSET 2.867323 3.959563 2.944291
										CHANNELS 3 Zrotation Yrotation Xrotation
										JOINT LeftHandThumb2
										{
											OFFSET 0.000000 3.350399 0.000000
											CHANNELS 3 Zrotation Yrotation Xrotation
											JOINT LeftHandThumb3
											{
												OFFSET -0.000000 3.756509 0.000000
												CHANNELS 3 Zrotation Yrotation Xrotation
												JOINT LeftHandThumb4
												{
													OFFSET -0.000000 3.100000 0.000000
													CHANNELS 3 Zrotation Yrotation Xrotation
													End Site
													{
														OFFSET 0.000000 0.000000 0.000000
													}
												}
											}
										}
									}
									JOINT LeftHandIndex1
									{
										OFFSET 0.086752 10.030893 2.345280
										CHANNELS 3 Zrotation Yrotation Xrotation
										JOINT LeftHandIndex2
										{
											OFFSET -0.000000 4.061090 -0.000000
											CHANNELS 3 Zrotation Yrotation Xrotation
											JOINT LeftHandIndex3
											{
												OFFSET 0.000000 3.248873 -0.000000
												CHANNELS 3 Zrotation Yrotation Xrotation
												JOINT LeftHandIndex4
												{
													OFFSET 0.000000 2.639709 -0.000000
													CHANNELS 3 Zrotation Yrotation Xrotation
													End Site
													{
														OFFSET 0.000000 0.000000 0.000000
													}
												}
											}
										}
									}
									JOINT LeftHandMiddle1
									{
										OFFSET -0.104102 9.502952 0.006768
										CHANNELS 3 Zrotation Yrotation Xrotation
										JOINT LeftHandMiddle2
										{
											OFFSET -0.000000 4.568727 -0.000000
											CHANNELS 3 Zrotation Yrotation Xrotation
											JOINT LeftHandMiddle3
											{
												OFFSET 0.000000 3.654981 0.000000
												CHANNELS 3 Zrotation Yrotation Xrotation
												JOINT LeftHandMiddle4
												{
													OFFSET 0.000000 2.741236 -0.000000
													CHANNELS 3 Zrotation Yrotation Xrotation
													End Site
													{
														OFFSET 0.000000 0.000000 0.000000
													}
												}
											}
										}
									}
									JOINT LeftHandRing1
									{
										OFFSET -0.086752 8.921708 -2.267442
										CHANNELS 3 Zrotation Yrotation Xrotation
										JOINT LeftHandRing2
										{
											OFFSET 0.000000 4.061090 0.000000
											CHANNELS 3 Zrotation Yrotation Xrotation
											JOINT LeftHandRing3
											{
												OFFSET 0.000000 3.654981 0.000000
												CHANNELS 3 Zrotation Yrotation Xrotation
												JOINT LeftHandRing4
												{
													OFFSET 0.000000 2.741236 0.000000
													CHANNELS 3 Zrotation Yrotation Xrotation
													End Site
													{
														OFFSET 0.000000 0.000000 0.000000
													}
												}
											}
										}
									}
									JOINT LeftHandPinky1
									{
										OFFSET 0.173504 7.976997 -4.467199
										CHANNELS 3 Zrotation Yrotation Xrotation
										JOINT LeftHandPinky2
										{
											OFFSET -0.000000 3.350399 -0.000000
											CHANNELS 3 Zrotation Yrotation Xrotation
											JOINT LeftHandPinky3
											{
												OFFSET 0.000000 2.842763 0.000000
												CHANNELS 3 Zrotation Yrotation Xrotation
												JOINT LeftHandPinky4
												{
													OFFSET -0.000000 2.639709 -0.000000
													CHANNELS 3 Zrotation Yrotation Xrotation
													End Site
													{
														OFFSET 0.000000 0.000000 0.000000
													}
												}
											}
										}
									}
									JOINT LeftForeArmEnd
									{
										OFFSET 0.000000 0.000000 0.000000
										CHANNELS 3 Zrotation Yrotation Xrotation
										End Site
										{
											OFFSET 0.000000 0.000000 0.000000
										}
									}
								}
								JOINT LeftArmEnd
								{
									OFFSET 0.000000 0.000000 0.000000
									CHANNELS 3 Zrotation Yrotation Xrotation
									End Site
									{
										OFFSET 0.000000 0.000000 0.000000
									}
								}
							}
						}
					}
				}
			}
		}
	}
	JOINT RightUpLeg
	{
		OFFSET -11.289943 0.000000 0.000000
		CHANNELS 3 Zrotation Yrotation Xrotation
		JOINT RightLeg
		{
			OFFSET 0.000000 -38.200325 0.000000
			CHANNELS 3 Zrotation Yrotation Xrotation
			JOINT RightFoot
			{
				OFFSET -0.000000 -39.900856 -0.000000
				CHANNELS 3 Zrotation Yrotation Xrotation
				JOINT RightToeBase
				{
					OFFSET 0.000000 0.000000 15.261641
					CHANNELS 3 Zrotation Yrotation Xrotation
					JOINT RightToeBaseEnd
					{
						OFFSET 0.000000 0.000000 7.370709
						CHANNELS 3 Zrotation Yrotation Xrotation
						End Site
						{
							OFFSET 0.000000 0.000000 0.000000
						}
					}
				}
				JOINT RightLegEnd
				{
					OFFSET 0.000000 0.000000 0.000000
					CHANNELS 3 Zrotation Yrotation Xrotation
					End Site
					{
						OFFSET 0.000000 0.000000 0.000000
					}
				}
			}
			JOINT RightUpLegEnd
			{
				OFFSET 0.000000 0.000000 0.000000
				CHANNELS 3 Zrotation Yrotation Xrotation
				End Site
				{
					OFFSET 0.000000 0.000000 0.000000
				}
			}
		}
	}
	JOINT LeftUpLeg
	{
		OFFSET 11.315661 -0.000000 0.000000
		CHANNELS 3 Zrotation Yrotation Xrotation
		JOINT LeftLeg
		{
			OFFSET -0.000000 -38.200325 -0.000000
			CHANNELS 3 Zrotation Yrotation Xrotation
			JOINT LeftFoot
			{
				OFFSET 0.000000 -39.900856 -0.000000
				CHANNELS 3 Zrotation Yrotation Xrotation
				JOINT LeftToeBase
				{
					OFFSET -0.000000 -0.000000 15.261641
					CHANNELS 3 Zrotation Yrotation Xrotation
					JOINT LeftToeBaseEnd
					{
						OFFSET 0.000000 -0.000000 7.539996
						CHANNELS 3 Zrotation Yrotation Xrotation
						End Site
						{
							OFFSET 0.000000 0.000000 0.000000
						}
					}
				}
				JOINT LeftLegEnd
				{
					OFFSET 0.000000 0.000000 0.000000
					CHANNELS 3 Zrotation Yrotation Xrotation
					End Site
					{
						OFFSET 0.000000 0.000000 0.000000
					}
				}
			}
			JOINT LeftUpLegEnd
			{
				OFFSET 0.000000 0.000000 0.000000
				CHANNELS 3 Zrotation Yrotation Xrotation
				End Site
				{
					OFFSET 0.000000 0.000000 0.000000
				}
			}
		}
	}
}
MOTION
Frames: 4
Frame Time: 0.016667
0.695920 88.692154 3.555585 0.253513 -0.929632 -11.228923 0.736193 0.159420 7.468544 -1.551284 0.363620 2.471045 0.078638 -0.641469 6.431721 -1.519161 0.245698 5.358860 1.198622 0.608901 4.795878 0.686851 0.552732 -3.264199 -0.242404 -1.020674 -19.739252 0.000000 0.000000 0.000000 90.711502 -0.115481 9.715823 68.334702 -21.299709 -0.484336 -0.679154 18.943876 71.861816 0.023140 9.744497 -2.095252 20.738258 29.845537 61.240936 -9.370425 -14.024826 -23.188948 -7.077949 -9.166152 -16.014950 0.000000 0.000000 0.000000 20.698223 -12.305665 2.639002 14.868578 0.059782 2.214217 14.537527 -0.351847 2.140937 0.000000 0.000000 0.000000 19.894672 -6.783695 1.074457 13.755333 0.328750 0.829183 14.377054 -0.140373 0.722460 0.000000 0.000000 0.000000 21.995005 0.697399 -0.815385 15.664438 -0.704688 -1.234768 15.572292 0.195209 -0.897512 0.000000 0.000000 0.000000 21.325638 9.244189 -3.224789 15.993564 -1.191819 -3.411581 15.701660 0.621326 -2.743547 0.000000 0.000000 0.000000 0.000000 0.000000 0.000000 0.000000 0.000000 0.000000 -87.680794 0.183212 4.245208 -73.246681 8.778984 -8.211970 -0.148320 -17.395765 84.553230 -7.273805 -18.449940 -5.480762 -21.718109 -29.716120 60.402557 9.929490 15.749111 -25.733274 7.585802 10.571054 -18.054708 0.000000 0.000000 0.000000 -29.010077 -3.779751 0.281244 -19.690670 0.031933 -1.758791 -19.658531 -0.429906 -1.667900 0.000000 0.000000 0.000000 -29.485144 1.488668 -0.863125 -20.121887 0.284342 -0.799319 -20.461966 -0.164992 -0.663282 0.000000 0.000000 0.000000 -35.277317 9.895399 -2.506045 -24.320522 -0.640285 1.308796 -24.230288 0.256400 1.009778 0.000000 0.000000 0.000000 -39.187420 18.129719 -4.562551 -26.568729 -0.810404 4.204220 -26.138298 0.988893 3.543794 0.000000 0.000000 0.000000 0.000000 0.000000 0.000000 0.000000 0.000000 0.000000 -1.700323 -9.264932 15.356322 -0.089770 -0.734526 5.689526 -2.747874 -7.304147 16.914143 -0.890817 0.939486 -18.281544 0.000000 0.000000 0.000000 0.000000 0.000000 0.000000 0.000000 0.000000 0.000000 -1.640158 -4.841479 10.151036 0.050985 0.276370 10.897198 4.346696 -1.454156 15.918797 0.173118 -0.354998 -20.605240 0.000000 0.000000 0.000000 0.000000 0.000000 0.000000 0.000000 0.000000 0.000000 
0.693957 88.683075 3.575495 0.246284 -0.907690 -11.259248 0.740670 0.161828 7.483917 -1.556236 0.368456 2.453802 0.070023 -0.607213 6.464974 -1.517968 0.259821 5.344553 1.116516 0.667104 4.760765 0.690889 0.584526 -3.262945 -0.256424 -1.035272 -19.705612 0.000000 0.000000 0.000000 90.750015 -0.126110 9.761821 68.263405 -21.508793 -0.363973 -0.660828 19.000109 70.441978 0.231362 9.387821 -2.496933 20.799574 29.826004 61.185017 -9.435066 -14.140757 -23.363813 -7.128987 -9.241021 -16.138504 0.000000 0.000000 0.000000 21.189972 -12.363210 2.388088 15.160993 0.044350 2.265890 14.835135 -0.367480 2.188690 0.000000 0.000000 0.000000 20.300137 -6.843518 0.913154 14.007314 0.321166 0.850963 14.623386 -0.146445 0.740557 0.000000 0.000000 0.000000 22.276556 0.638741 -0.828331 15.825169 -0.692362 -1.266644 15.735814 0.204016 -0.923022 0.000000 0.000000 0.000000 21.537056 9.176340 -3.091046 16.059258 -1.156660 -3.510454 15.771307 0.649054 -2.830560 0.000000 0.000000 0.000000 0.000000 0.000000 0.000000 0.000000 0.000000 0.000000 -87.703529 0.175035 4.247444 -73.246307 8.850821 -8.199457 -0.156908 -17.435934 84.222458 -6.930397 -17.457264 -5.918528 -21.880369 -29.681009 60.254150 10.048397 16.083292 -26.205225 7.699248 10.789886 -18.383379 0.000000 0.000000 0.000000 -30.102581 -3.610110 -0.079030 -20.418657 0.001269 -1.851720 -20.377129 -0.460091 -1.752593 0.000000 0.000000 0.000000 -30.517605 1.649242 -1.107087 -20.815416 0.270703 -0.836406 -21.154581 -0.176975 -0.694207 0.000000 0.000000 0.000000 -36.207787 10.033823 -2.596420 -24.945557 -0.619911 1.352020 -24.857918 0.271805 1.043628 0.000000 0.000000 0.000000 -39.905624 18.250456 -4.469250 -27.085478 -0.758097 4.321380 -26.654285 1.033339 3.641479 0.000000 0.000000 0.000000 0.000000 0.000000 0.000000 0.000000 0.000000 0.000000 -1.709676 -9.312850 15.422659 -0.089336 -0.735892 5.651477 -2.743773 -7.308714 16.889864 -0.889241 0.941183 -18.248856 0.000000 0.000000 0.000000 0.000000 0.000000 0.000000 0.000000 0.000000 0.000000 -1.631746 -4.869239 10.190396 0.052291 0.279262 10.888176 4.356933 -1.484474 15.905686 0.175356 -0.356511 -20.587381 0.000000 0.000000 0.000000 0.000000 0.000000 0.000000 0.000000 0.000000 0.000000 
0.692306 88.673576 3.598083 0.237457 -0.879417 -11.293118 0.748690 0.164033 7.498330 -1.556371 0.373402 2.434121 0.059769 -0.566187 6.501959 -1.519905 0.276339 5.330113 1.035043 0.724393 4.720229 0.693088 0.615654 -3.265504 -0.268088 -1.049008 -19.678827 0.000000 0.000000 0.000000 90.785439 -0.134348 9.806372 68.212036 -21.679148 -0.260858 -0.637117 19.049135 68.933823 0.418784 9.109210 -2.900151 20.835033 29.814081 61.154163 -9.474014 -14.204048 -23.460783 -7.158513 -9.281505 -16.207569 0.000000 0.000000 0.000000 21.453405 -12.388901 2.185156 15.317450 0.030580 2.309075 14.996830 -0.381600 2.228615 0.000000 0.000000 0.000000 20.495365 -6.870384 0.778623 14.127884 0.314408 0.869585 14.737838 -0.151973 0.755888 0.000000 0.000000 0.000000 22.361237 0.614524 -0.840847 15.851999 -0.681049 -1.294266 15.767718 0.212227 -0.945226 0.000000 0.000000 0.000000 21.570753 9.142260 -2.982283 16.004866 -1.123113 -3.596792 15.721531 0.675381 -2.907219 0.000000 0.000000 0.000000 0.000000 0.000000 0.000000 0.000000 0.000000 0.000000 -87.730850 0.167239 4.249418 -73.223747 8.945673 -8.185787 -0.160290 -17.455450 83.956413 -6.630721 -16.400402 -6.313544 -22.040897 -29.647161 60.107964 10.163234 16.414303 -26.671257 7.810263 11.006844 -18.707884 0.000000 0.000000 0.000000 -31.178623 -3.445928 -0.432841 -21.136877 -0.028286 -1.938066 -21.084358 -0.489251 -1.831161 0.000000 0.000000 0.000000 -31.529804 1.804898 -1.347864 -21.497953 0.257587 -0.870731 -21.836691 -0.188544 -0.722723 0.000000 0.000000 0.000000 -37.118057 10.168320 -2.688621 -25.559835 -0.600288 1.391343 -25.474911 0.286550 1.074498 0.000000 0.000000 0.000000 -40.605736 18.369495 -4.382522 -27.592272 -0.707831 4.428261 -27.161175 1.076076 3.730690 0.000000 0.000000 0.000000 0.000000 0.000000 0.000000 0.000000 0.000000 0.000000 -1.717193 -9.365435 15.497459 -0.088887 -0.737153 5.613232 -2.740811 -7.316573 16.861217 -0.888112 0.942005 -18.212315 0.000000 0.000000 0.000000 0.000000 0.000000 0.000000 0.000000 0.000000 0.000000 -1.622273 -4.906219 10.236998 0.053731 0.282654 10.877874 4.366346 -1.519507 15.888638 0.177773 -0.358604 -20.566938 0.000000 0.000000 0.000000 0.000000 0.000000 0.000000 0.000000 0.000000 0.000000 
0.690351 88.664055 3.622518 0.226754 -0.845039 -11.328233 0.759668 0.166028 7.509996 -1.550996 0.378460 2.415005 0.047961 -0.519175 6.539942 -1.524972 0.295211 5.314629 0.952470 0.778798 4.677357 0.693494 0.643016 -3.270725 -0.277170 -1.062500 -19.658560 0.000000 0.000000 0.000000 90.816902 -0.140640 9.850880 68.173454 -21.839403 -0.167393 -0.608250 19.086460 67.326881 0.581584 8.885998 -3.287504 20.848984 29.808517 61.144402 -9.491378 -14.223490 -23.492651 -7.170063 -9.293358 -16.231443 0.000000 0.000000 0.000000 21.523981 -12.388026 2.016913 15.358588 0.018678 2.343957 15.043514 -0.393949 2.260906 0.000000 0.000000 0.000000 20.515619 -6.870209 0.662308 14.139410 0.308593 0.884943 14.742616 -0.156862 0.768446 0.000000 0.000000 0.000000 22.290710 0.618040 -0.852446 15.776588 -0.670990 -1.317313 15.698327 0.219621 -0.963858 0.000000 0.000000 0.000000 21.470793 9.135913 -2.889949 15.865909 -1.092339 -3.669571 15.587531 0.699410 -2.972596 0.000000 0.000000 0.000000 0.000000 0.000000 0.000000 0.000000 0.000000 0.000000 -87.760857 0.159813 4.251297 -73.171150 9.082110 -8.161958 -0.157087 -17.451448 83.728340 -6.386758 -15.289290 -6.660988 -22.196772 -29.615179 59.966511 10.272249 16.736290 -27.123278 7.916940 11.217949 -19.022806 0.000000 0.000000 0.000000 -32.221806 -3.289739 -0.771538 -21.833858 -0.056047 -2.016433 -21.769278 -0.516747 -1.902170 0.000000 0.000000 0.000000 -32.509544 1.953667 -1.577714 -22.158850 0.245273 -0.901714 -22.497641 -0.199452 -0.748352 0.000000 0.000000 0.000000 -38.000828 10.297557 -2.774836 -26.156668 -0.581950 1.426049 -26.074373 0.300237 1.101822 0.000000 0.000000 0.000000 -41.287243 18.485796 -4.295923 -28.086536 -0.661056 4.522579 -27.656197 1.115911 3.809364 0.000000 0.000000 0.000000 0.000000 0.000000 0.000000 0.000000 0.000000 0.000000 -1.722553 -9.421922 15.577383 -0.088460 -0.738301 5.574790 -2.738793 -7.325008 16.830725 -0.887660 0.941804 -18.173796 0.000000 0.000000 0.000000 0.000000 0.000000 0.000000 0.000000 0.000000 0.000000 -1.612401 -4.953499 10.288190 0.055270 0.286525 10.867512 4.374319 -1.558596 15.867036 0.180248 -0.361151 -20.543999 0.000000 0.000000 0.000000 0.000000 0.000000 0.000000 0.000000 0.000000 0.000000 
